<svg width="50" height="50" viewBox="0 0 50 50" fill="none" xmlns="http://www.w3.org/2000/svg">
<path d="M45.1152 9.44141L29.4736 25.0811L39.7012 35.3086L41.8701 33.1396L45.4424 33.5361L40.4814 38.4971L46.4346 44.4502L47.1611 43.7236L49.1631 49.1621L43.7236 47.1602L44.4502 46.4336L38.4971 40.4814L33.5361 45.4414L33.1396 41.8701L35.3086 39.7012L25.0811 29.4736L14.8545 39.7012L17.0234 41.8701L16.627 45.4414L11.666 40.4814L5.71289 46.4336L6.43945 47.1602L1 49.1621L3.00293 43.7236L3.72852 44.4502L9.68164 38.4971L4.72168 33.5361L8.29297 33.1396L10.4619 35.3086L20.6885 25.0811L5.04785 9.44141L0.999023 1L9.44141 5.04785L25.0811 20.6885L40.7227 5.04785L49.1641 1L45.1152 9.44141Z" fill="black"/>
</svg>
