<svg width="50" height="50" viewBox="0 0 50 50" fill="none" xmlns="http://www.w3.org/2000/svg">
<g clip-path="url(#clip0_1_6)">
<path d="M24.917 0C26.0214 0.000174186 26.917 0.895538 26.917 2V4.28516C37.0333 4.86724 45.1327 12.9667 45.7148 23.083H48C49.1045 23.083 49.9998 23.9786 50 25.083C50 26.1876 49.1046 27.083 48 27.083H45.7041C45.0471 37.0665 37.0665 45.0471 27.083 45.7041V48C27.083 49.1046 26.1876 50 25.083 50C23.9786 49.9998 23.083 49.1045 23.083 48V45.7148C13.0221 45.1359 4.95654 37.1218 4.2959 27.083H2C0.895431 27.083 0 26.1876 0 25.083C0.000175217 23.9786 0.895539 23.083 2 23.083H4.28516C4.86407 13.0221 12.8782 4.95556 22.917 4.29492V2C22.917 0.895431 23.8124 0 24.917 0ZM26.917 10.5C26.917 11.6045 26.0214 12.4998 24.917 12.5C23.8124 12.5 22.917 11.6046 22.917 10.5V8.30566C15.0885 8.95138 8.85892 15.2321 8.29297 23.083H10.5C11.6045 23.083 12.4998 23.9786 12.5 25.083C12.5 26.1876 11.6046 27.083 10.5 27.083H8.30469C8.9504 34.9116 15.2321 41.1411 23.083 41.707V39.5C23.083 38.3955 23.9786 37.5002 25.083 37.5C26.1876 37.5 27.083 38.3954 27.083 39.5V41.6934C34.8562 41.0522 41.0532 34.8562 41.6943 27.083H39.5C38.3954 27.083 37.5 26.1876 37.5 25.083C37.5002 23.9786 38.3955 23.083 39.5 23.083H41.708C41.1381 15.1766 34.8234 8.86092 26.917 8.29102V10.5ZM19.5186 15.7783C19.6904 15.8045 19.839 15.9188 19.9062 16.083L25.2256 29.0762L30.5459 16.083L30.5791 16.0156C30.6684 15.8664 30.8312 15.7725 31.0088 15.7725H33.4258C33.7018 15.7725 33.9256 15.9964 33.9258 16.2725V33C33.9258 33.2761 33.7019 33.5 33.4258 33.5H31.5312C31.2551 33.5 31.0312 33.2761 31.0312 33V22.4238L26.6035 33.1904C26.5264 33.3779 26.3433 33.5 26.1406 33.5H24.3115C24.1089 33.5 23.9258 33.3778 23.8486 33.1904L19.4209 22.4258V33C19.4209 33.276 19.1968 33.4998 18.9209 33.5H17.0254C16.7493 33.4999 16.5254 33.2761 16.5254 33V16.2725C16.5255 15.9965 16.7494 15.7726 17.0254 15.7725H19.4434L19.5186 15.7783Z" fill="black"/>
</g>
<defs>
<clipPath id="clip0_1_6">
<rect width="50" height="50" fill="white"/>
</clipPath>
</defs>
</svg>
