<svg width="50" height="50" viewBox="0 0 50 50" fill="none" xmlns="http://www.w3.org/2000/svg">
<g clip-path="url(#clip0_1_43)">
<path d="M24.917 0C26.0214 0.000174186 26.917 0.895538 26.917 2V4.28516C37.0333 4.86724 45.1327 12.9667 45.7148 23.083H48C49.1045 23.083 49.9998 23.9786 50 25.083C50 26.1876 49.1046 27.083 48 27.083H45.7041C45.0471 37.0665 37.0665 45.0471 27.083 45.7041V48C27.083 49.1046 26.1876 50 25.083 50C23.9786 49.9998 23.083 49.1045 23.083 48V45.7148C13.0221 45.1359 4.95654 37.1218 4.2959 27.083H2C0.895431 27.083 0 26.1876 0 25.083C0.000175217 23.9786 0.895539 23.083 2 23.083H4.28516C4.86407 13.0221 12.8782 4.95556 22.917 4.29492V2C22.917 0.895431 23.8124 0 24.917 0ZM26.917 10.5C26.917 11.6045 26.0214 12.4998 24.917 12.5C23.8124 12.5 22.917 11.6046 22.917 10.5V8.30566C15.0885 8.95138 8.85892 15.2321 8.29297 23.083H10.5C11.6045 23.083 12.4998 23.9786 12.5 25.083C12.5 26.1876 11.6046 27.083 10.5 27.083H8.30469C8.9504 34.9116 15.2321 41.1411 23.083 41.707V39.5C23.083 38.3955 23.9786 37.5002 25.083 37.5C26.1876 37.5 27.083 38.3954 27.083 39.5V41.6934C34.8562 41.0522 41.0532 34.8562 41.6943 27.083H39.5C38.3954 27.083 37.5 26.1876 37.5 25.083C37.5002 23.9786 38.3955 23.083 39.5 23.083H41.708C41.1381 15.1766 34.8234 8.86092 26.917 8.29102V10.5ZM25.3447 15.3184C26.8169 15.3184 28.0707 15.5687 29.0762 16.1035L29.4365 16.3096C30.2528 16.8122 30.8825 17.4736 31.3105 18.2949C31.7903 19.2155 32.0244 20.2525 32.0244 21.3936C32.0244 22.5343 31.7906 23.5664 31.3096 24.4766C30.82 25.4027 30.0706 26.1237 29.084 26.6396L29.0811 26.6406C29.0014 26.6818 28.9197 26.7201 28.8369 26.7578L32.6729 33.7598C32.7577 33.9146 32.755 34.1029 32.665 34.2549C32.575 34.4068 32.411 34.5 32.2344 34.5H29.6777C29.4939 34.5 29.3246 34.3991 29.2373 34.2373L25.5479 27.3936C25.4925 27.3943 25.4369 27.3975 25.3809 27.3975H21.9033V34C21.9033 34.2761 21.6795 34.5 21.4033 34.5H19.2021C18.926 34.5 18.7021 34.2761 18.7021 34V15.8184C18.7021 15.5422 18.926 15.3184 19.2021 15.3184H25.3447ZM21.9033 24.4092H25.3096C26.2382 24.4092 26.9376 24.2722 27.4375 24.0322L27.4385 24.0312C27.9506 23.7879 28.2952 23.458 28.5049 23.0479L28.5059 23.0459C28.7339 22.6046 28.8584 22.0594 28.8584 21.3936C28.8584 20.7281 28.7333 20.1708 28.502 19.708C28.2831 19.2705 27.9328 18.9243 27.4229 18.6719L27.4189 18.6709V18.6699C26.9161 18.4161 26.212 18.2715 25.2744 18.2715H21.9033V24.4092Z" fill="black"/>
</g>
<defs>
<clipPath id="clip0_1_43">
<rect width="50" height="50" fill="white"/>
</clipPath>
</defs>
</svg>
