<svg width="50" height="50" viewBox="0 0 50 50" fill="none" xmlns="http://www.w3.org/2000/svg">
<path d="M29.9023 43.2354L30.3467 45.1855C28.8797 45.5195 27.206 45.7419 25.1396 45.9482L24.9414 43.958L24.7422 41.9678C26.7632 41.7659 28.2391 41.5628 29.459 41.2852L29.9023 43.2354ZM39.2314 37.4639L40.7393 38.7793C39.5279 40.1677 38.1315 41.3976 36.582 42.4316C34.8903 43.5605 33.3837 44.3304 31.5469 44.873L30.4141 41.0371C31.7746 40.6351 32.9158 40.069 34.3613 39.1045C35.6151 38.2679 36.7447 37.2725 37.7246 36.1494L39.2314 37.4639ZM45.7246 27.6934C45.4898 29.5205 45.0133 31.3189 44.2998 33.0391C43.5862 34.7596 42.6503 36.3683 41.5225 37.8262L38.3584 35.3789C39.2708 34.1996 40.0283 32.8984 40.6055 31.5068C41.1825 30.1156 41.5679 28.6612 41.7578 27.1836L45.7246 27.6934ZM24.9414 30.8389C26.3798 30.8391 27.5468 32.0042 27.5469 33.4424C27.5467 34.8804 26.3797 36.0447 24.9414 36.0449C23.5029 36.0449 22.3352 34.8805 22.335 33.4424C22.3351 32.0042 23.5029 30.8389 24.9414 30.8389ZM20.9961 4.47461C22.57 4.02745 24.1542 3.98411 25.5273 4.10938C26.6981 4.14211 27.8695 4.27275 29.0283 4.50293C30.1602 4.7278 31.2664 5.04506 32.3369 5.44824C34.6609 6.07973 36.5399 7.34303 37.9082 8.55176C38.0362 8.66486 38.1599 8.77781 38.2793 8.88965C38.7911 9.31156 39.2848 9.75812 39.7568 10.2295C41.0747 11.5456 42.2042 13.0242 43.1211 14.6221L41.3867 15.6182L39.6523 16.6133C38.9107 15.3208 37.9969 14.1244 36.9307 13.0596C36.7762 12.9053 36.6179 12.7552 36.458 12.6074C36.1145 12.3194 35.6625 11.9594 35.1143 11.5684C33.9648 10.7485 32.4016 9.79382 30.5449 9.05371C30.0078 8.86586 29.4605 8.70385 28.9043 8.57031C28.7529 8.54586 28.5782 8.52031 28.3838 8.49316C27.6326 8.38831 26.5822 8.27541 25.3877 8.24316C23.9423 8.20416 22.3128 8.28532 20.7539 8.62598C19.9725 8.82485 19.2031 9.07907 18.4521 9.38965C18.3368 9.43736 18.2225 9.48793 18.1084 9.53809C18.0087 9.58845 17.9088 9.6384 17.8115 9.69238L17.8018 9.67578C17.3011 9.90783 16.8132 10.1632 16.3398 10.4414C16.2801 10.4859 16.2192 10.5305 16.1582 10.5762C15.0283 11.4225 13.7025 12.4669 12.4688 13.5635C11.8768 14.2051 11.3322 14.8935 10.8428 15.625C10.5727 16.0286 10.322 16.4433 10.0889 16.8662C10.0984 16.872 10.1001 16.8738 10.1006 16.874C10.1001 16.8745 10.0986 16.8753 10.0977 16.877C10.0955 16.8806 10.0918 16.8869 10.0869 16.8955C10.077 16.9129 10.0623 16.9412 10.042 16.9785C10.0013 17.0532 9.94079 17.1675 9.86621 17.3203C9.71676 17.6267 9.50924 18.088 9.28516 18.6953C9.06952 19.2798 8.83966 20.0003 8.62891 20.8486H11.458C11.6438 20.8487 11.8151 20.9516 11.9014 21.1162C11.9876 21.2809 11.975 21.481 11.8691 21.6338L6.39746 29.5205C6.3041 29.6551 6.1501 29.7352 5.98633 29.7354C5.8634 29.7354 5.74652 29.6898 5.65625 29.6104L5.5752 29.5205L0.103515 21.6338C-0.00242005 21.4809 -0.0149458 21.281 0.0712889 21.1162C0.157658 20.9517 0.328809 20.8486 0.514648 20.8486H4.1377C4.42909 19.7692 4.83368 18.6814 5.19434 17.8066C5.42796 17.24 5.64502 16.756 5.80371 16.4141C5.88302 16.2432 5.9479 16.1072 5.99316 16.0137C6.0157 15.9671 6.03371 15.931 6.0459 15.9062C6.05182 15.8942 6.05634 15.8844 6.05957 15.8779L6.06445 15.8682L6.06543 15.8672C6.06641 15.8677 6.07141 15.8697 6.09375 15.8809C6.50971 15.0261 6.98578 14.1977 7.51855 13.4014C8.06836 12.5797 8.67446 11.802 9.3291 11.0713C10.3593 9.59015 11.9876 8.35278 13.4199 7.45215C14.3266 6.88206 15.1815 6.42953 15.8096 6.12012C16.1238 5.96529 16.3829 5.84584 16.5635 5.76465C16.6535 5.72417 16.7247 5.69293 16.7734 5.67188C16.7975 5.66148 16.8161 5.65296 16.8291 5.64746C16.8355 5.64474 16.8412 5.64307 16.8447 5.6416C16.8463 5.64093 16.8477 5.64008 16.8486 5.63965H16.8496L16.8506 5.63867L16.8809 5.71094C16.8948 5.70515 16.9089 5.69912 16.9229 5.69336C18.2423 5.14761 19.6073 4.74054 20.9961 4.47461ZM27.5742 13.4873C27.7126 13.4875 27.845 13.5453 27.9395 13.6465C28.034 13.748 28.0821 13.8851 28.0723 14.0234L27.0195 28.7451C27.0008 29.0067 26.7827 29.2099 26.5205 29.21H23.3613C23.0992 29.2097 22.882 29.0066 22.8633 28.7451L21.8096 14.0234C21.7998 13.8851 21.8479 13.748 21.9424 13.6465C22.0369 13.545 22.1699 13.4873 22.3086 13.4873H27.5742ZM43.7031 15.71C44.5246 17.3596 45.1293 19.1197 45.4932 20.9463C45.8569 22.7725 45.9724 24.629 45.8457 26.4668L41.8555 26.1914C41.9579 24.7053 41.8644 23.2043 41.5703 21.7275C41.2761 20.2504 40.7875 18.8265 40.123 17.4922L41.9131 16.6016L43.7031 15.71ZM13.4316 10.1572C13.4328 10.1564 13.4335 10.1551 13.4346 10.1543L13.4336 10.1523C13.4329 10.154 13.4323 10.1556 13.4316 10.1572ZM33.8242 9.5459L33.8252 9.54199C33.8213 9.54114 33.8173 9.54089 33.8135 9.54004C33.817 9.54209 33.8207 9.54385 33.8242 9.5459Z" fill="black"/>
</svg>
