<svg width="50" height="50" viewBox="0 0 50 50" fill="none" xmlns="http://www.w3.org/2000/svg">
<path d="M25 1C33.5209 1 39.2858 5.55006 40.4287 10.6689H41.5713V14.082L43.2861 14.6504L42.7139 16.3564H43.8574L44.4287 26.0264L43.2861 27.1631L45 40.2451L25.5713 49.9141L5 40.8135L6.71387 27.1631L5.57129 26.0264L6.14258 16.3564H7.28613L6.71387 14.6504L8.42871 14.082V10.6689H9.57129C10.7142 5.55006 16.4791 1 25 1ZM21.4102 42.9922L23.4619 43.877L23.3154 29.585H21.4102V42.9922ZM26.5381 43.877L28.5898 42.9922L28.502 29.585H26.5381V43.877ZM15.7695 40.6943L17.7832 42.0342L18.4082 28.2891L16.6025 28.21L15.7695 40.6943ZM31.79 28.2598L32.2568 42.0322L34.2383 40.6934L33.5684 28.1816L31.79 28.2598ZM11.3994 38.333L13.2051 39.7842L13.7939 27.2881L12.1191 27.2031L11.3994 38.333ZM36.3672 27.3164L36.7949 39.7842L39.0332 38.3467L38.3135 27.2168L36.3672 27.3164ZM38.2842 16.5449C38.3232 15.1654 34.6559 15.9436 32.6426 16.3857C28.3425 17.3301 28.0984 17.875 28.0586 19.2549C28.0518 19.4897 28.0324 19.7024 28.0156 19.8936C27.9337 20.8256 27.8967 21.2517 29.5 21.2979C37.0257 20.5142 38.2444 17.9251 38.2842 16.5449ZM17.3076 16.3135C15.0219 15.7447 12.4327 15.2199 11.8613 16.3574C11.6673 17.3352 13.4257 19.8288 16.2822 20.3975C18.5676 20.8525 22.1465 22.0441 22.1475 20.3389C22.1474 17.6223 22.7594 17.6701 17.3076 16.3135Z" fill="black"/>
</svg>
