<svg width="50" height="50" viewBox="0 0 50 50" fill="none" xmlns="http://www.w3.org/2000/svg">
<g clip-path="url(#clip0_2_3)">
<path d="M19.5908 12.7864L20.1602 13.6008L20.4746 12.6585L22.3301 7.08913L23.376 13.5735L23.5488 14.6458L24.251 13.8167L32.0254 4.64186L28.0312 15.3245L27.5537 16.6028L28.7441 15.9358L36.4043 11.6458L29.2529 17.551L28.1367 18.4729L29.584 18.4368L43.666 18.0833L33.3418 21.5257L32.3994 21.8401L33.2129 22.4094L36.9141 25.0003H28.8115L29.6426 25.8499L37.1426 33.5169L28.6904 30.0374L27.5361 29.5628L28.043 30.7034L30.9492 37.2425L25 31.2932V40.1702L21.4561 32.2952L21.0781 31.4544L20.5791 32.2298L17.0391 37.7346L17.2607 27.9319L17.2783 27.1389L16.5547 27.4651L6.88184 31.8274L9.91602 27.2776L10.5566 26.3167L9.41797 26.5071L2.71484 27.6233L11.2773 21.9163L11.9561 21.4641L11.2451 21.0637L5.1084 17.6116L12.4277 17.9993L13.5742 18.0598L12.8379 17.179L4.68164 7.42604L14.2188 13.9075L15.1475 14.5374L14.9951 13.426L13.7734 4.47585L19.5908 12.7864Z" fill="#B7410E" stroke="black"/>
<path d="M24.5865 15.5722L37.2658 8.36347L37.8215 7.4435L37.4496 5.97097L37.5231 5.01397L37.6737 4.06289L38.189 2.6585L39.3407 1.30298L40.7469 0.929651L41.7884 1.00964L43.1211 1.5933L43.5665 2.10883L43.9752 3.10286L44.3471 4.57539L44.2736 5.53239L43.7583 6.93679L44.0899 7.92489L44.6125 8.44635L45.9819 8.55151L47.0226 8.38989L48.0062 8.46542L48.9154 9.25812L49.2102 10.7247L49.0999 12.1602L48.5926 13.4614L47.536 14.588L46.4318 15.3246L45.4307 15.729L44.4663 15.6549L43.1549 14.7951L42.1289 14.5128L41.2417 14.4447L24.3705 24.7007L23.5 25L22.5 24.7007L22 24L22 23L22.2205 22.129L22.7394 21.6875L23.7405 21.2831L24.7049 21.3572L25.1871 21.3942L25.706 20.9527L24.7784 20.4002L24.8151 19.9217L24.8519 19.4432L25.3708 19.0017L25.8897 18.5602L26.4087 18.1187L27.3327 17.7084L27.4465 17.2358L27.0298 17.8429L26.5277 18.0659L25.4443 18.0447L24.5167 17.4921L24.0713 16.9766L24.108 16.4981L24.1447 16.0196L24.5865 15.5722Z" fill="white"/>
<path d="M24.4819 16.5268C24.2326 16.5077 23.9834 16.4885 23.7341 16.4694C23.7189 16.6287 23.7038 16.7879 23.6886 16.9472C23.6814 17.0233 23.7319 17.1687 23.7809 17.2275C23.9262 17.402 24.0716 17.5766 24.217 17.7511C24.234 17.7715 24.2914 17.8184 24.314 17.8324C24.6199 18.0222 24.9258 18.2119 25.2317 18.4016C25.2726 18.4269 25.3881 18.4582 25.4362 18.46C25.7972 18.4735 26.1582 18.4869 26.5192 18.5003C26.5604 18.5018 26.666 18.4791 26.704 18.463C26.8727 18.3915 27.0414 18.3201 27.2101 18.2487C27.2612 18.227 27.3637 18.1394 27.3959 18.0942C27.5256 17.912 27.6553 17.7298 27.785 17.5477C27.7977 17.5299 27.8104 17.5121 27.823 17.4943L27.0026 17.1288C26.9619 17.2857 26.9213 17.4426 26.8806 17.5995L27.1439 17.2835C26.8336 17.415 26.5233 17.5466 26.213 17.6783C26.1866 17.6895 26.1185 17.7334 26.0964 17.7516C25.9209 17.8959 25.7455 18.0402 25.5701 18.1845C25.3947 18.3288 25.2193 18.4731 25.0439 18.6174C24.8686 18.7618 24.6932 18.9061 24.5178 19.0505C24.4385 19.1158 24.3474 19.3014 24.3379 19.4037C24.323 19.563 24.3082 19.7223 24.2934 19.8816C24.2786 20.0409 24.2638 20.2002 24.249 20.3595C24.233 20.5329 24.3586 20.7648 24.5067 20.8563C24.813 21.0454 25.1193 21.2344 25.4256 21.4234L25.351 20.5354C25.1757 20.6799 25.0005 20.8243 24.8252 20.9688L25.2298 20.8374C25.0693 20.8225 24.9088 20.8077 24.7482 20.7929C24.4271 20.7633 24.1061 20.7338 23.785 20.7043C23.7267 20.6989 23.5777 20.7237 23.5231 20.7448C23.1873 20.8746 22.8516 21.0045 22.5159 21.1344C22.4786 21.1488 22.3837 21.2076 22.3528 21.2331C22.1777 21.3777 22.0026 21.5224 21.8274 21.667C21.76 21.7227 21.6551 21.8957 21.6325 21.9802C21.5547 22.2694 21.4771 22.5587 21.3994 22.848C21.3912 22.8785 21.3809 22.9684 21.3805 23C21.3757 23.3333 21.371 23.6667 21.3663 24C21.365 24.0917 21.432 24.2927 21.4842 24.3681C21.6475 24.604 21.811 24.8399 21.9744 25.0758C22.0321 25.1591 22.2182 25.2889 22.3149 25.3193C22.6468 25.4237 22.9788 25.528 23.3108 25.6322C23.4023 25.661 23.6235 25.6541 23.7146 25.6241C24.0061 25.5283 24.2976 25.4324 24.5891 25.3365C24.6171 25.3273 24.6943 25.2902 24.7197 25.2752C30.3888 21.9312 36.0489 18.5722 41.6998 15.1983L41.1741 15.3241C41.4697 15.3492 41.7652 15.3742 42.0608 15.3992L41.8931 15.3699C42.2343 15.4667 42.5756 15.5634 42.9169 15.66L42.663 15.5453C43.098 15.8351 43.5331 16.1249 43.9682 16.4146C44.053 16.471 44.2953 16.5522 44.3967 16.5607C44.718 16.5876 45.0393 16.6145 45.3606 16.6414C45.4525 16.6491 45.6877 16.6114 45.7734 16.5775C46.1081 16.4449 46.4427 16.3123 46.7772 16.1796C46.8129 16.1655 46.9114 16.1129 46.9435 16.0918C47.3132 15.8486 47.6828 15.6055 48.0524 15.3622C48.0889 15.3382 48.1847 15.2563 48.2148 15.2246C48.5692 14.8512 48.9237 14.4778 49.278 14.1042C49.3306 14.0488 49.4399 13.8738 49.4681 13.8028C49.6396 13.37 49.8112 12.9372 49.9826 12.5044C50.004 12.4503 50.0398 12.2907 50.0445 12.2328C50.0838 11.7545 50.123 11.2762 50.1621 10.7978C50.1666 10.7437 50.1567 10.5899 50.1462 10.5366C50.0504 10.0472 49.9544 9.55788 49.8583 9.06857C49.8296 8.92189 49.6597 8.63189 49.5475 8.53315C49.2456 8.26754 48.9437 8.00198 48.6418 7.73648C48.5322 7.64014 48.2257 7.51294 48.0803 7.50116C47.7525 7.4746 47.4247 7.44809 47.097 7.42162C47.0512 7.41792 46.919 7.4234 46.8736 7.43027C46.5265 7.48278 46.1794 7.53533 45.8322 7.58794L46.0566 7.57925C45.6002 7.54253 45.1439 7.50588 44.6875 7.46933L45.3046 7.75271C45.131 7.57832 44.9574 7.40395 44.7837 7.22959L45.0211 7.61243C44.9116 7.28271 44.8021 6.95302 44.6925 6.62334L44.6834 7.27619C44.8564 6.80854 45.0294 6.34086 45.2023 5.87314C45.2218 5.82035 45.2555 5.66424 45.26 5.60814C45.2852 5.2892 45.3105 4.97025 45.3356 4.65131C45.3409 4.58421 45.3247 4.39789 45.3084 4.3326C45.1854 3.84149 45.0624 3.35041 44.9393 2.85935C44.9323 2.83157 44.9057 2.75125 44.8949 2.72475C44.7592 2.39317 44.6235 2.06161 44.4878 1.73006C44.4623 1.66781 44.3641 1.50857 44.3202 1.4576C44.172 1.28554 44.0237 1.1135 43.8755 0.941466C43.8124 0.868233 43.6096 0.71894 43.521 0.680043C43.0771 0.484923 42.6331 0.289891 42.189 0.0949459C42.1244 0.0665822 41.9352 0.019462 41.8649 0.0139973C41.5177 -0.0129687 41.1706 -0.039886 40.8234 -0.0667545C40.753 -0.0722035 40.5587 -0.0543055 40.4905 -0.0362262C40.0217 0.0879386 39.5529 0.212195 39.0841 0.336544C38.948 0.372667 38.67 0.548187 38.5787 0.65553C38.4144 0.848883 38.25 1.04225 38.0857 1.23564C37.8661 1.49409 37.6468 1.75281 37.4279 2.01181C37.3799 2.06861 37.2768 2.24457 37.2514 2.31447C37.0808 2.78303 36.911 3.25189 36.7421 3.72107C36.7288 3.75803 36.6995 3.86882 36.6936 3.90766C36.6453 4.22499 36.5974 4.54238 36.5498 4.85983C36.5475 4.87555 36.5417 4.92266 36.5406 4.93852C36.5188 5.25772 36.4973 5.57696 36.4763 5.89622C36.4719 5.96235 36.4862 6.14595 36.5031 6.21003C36.6324 6.69954 36.7625 7.18882 36.8936 7.67788L37.0023 6.94867C36.8215 7.25799 36.6411 7.56756 36.4611 7.87737L36.8012 7.54614C33.6017 9.43795 30.4269 11.3733 27.277 13.3523C26.3063 13.9623 25.3378 14.5763 24.3718 15.1945C24.351 15.2078 24.2938 15.2485 24.2774 15.2669C24.1379 15.4237 23.9986 15.5807 23.8593 15.7378C23.814 15.7888 23.7464 15.9206 23.7448 15.9889C23.7411 16.149 23.7376 16.3092 23.7341 16.4694C23.9834 16.4885 24.2326 16.5077 24.4819 16.5268C24.5029 16.368 24.5239 16.2092 24.5447 16.0503L24.4302 16.3014C24.5855 16.1602 24.7406 16.0189 24.8957 15.8775L24.8013 15.9499C25.8266 15.4359 26.8495 14.9178 27.8701 14.3955C31.1817 12.7009 34.4685 10.9626 37.7305 9.18079C37.8245 9.12947 38.0137 8.94024 38.0706 8.84956C38.2611 8.54606 38.4511 8.24231 38.6407 7.93833C38.742 7.7761 38.7936 7.39515 38.7495 7.20911C38.6325 6.71648 38.5147 6.22408 38.396 5.7319L38.4229 6.04571C38.4508 5.72698 38.4784 5.40821 38.5055 5.08942L38.4963 5.16811C38.5492 4.85151 38.6017 4.53485 38.6538 4.21813L38.6053 4.40472C38.7799 3.93763 38.9537 3.47023 39.1266 3.00253L38.9501 3.30519C39.1703 3.04728 39.3903 2.7891 39.6099 2.53065C39.7742 2.33726 39.9385 2.14386 40.1027 1.95044L39.5973 2.26942C40.066 2.14488 40.5347 2.02025 41.0033 1.89553L40.6704 1.92606C41.0176 1.95251 41.3647 1.97892 41.7119 2.00527L41.3878 1.92433C41.8322 2.11849 42.2766 2.31257 42.7211 2.50656L42.3667 2.24514C42.5154 2.41679 42.6641 2.58844 42.8128 2.76006L42.6452 2.4876C42.782 2.81875 42.9187 3.14987 43.0555 3.48098L43.0111 3.34638C43.1359 3.83701 43.2609 4.32761 43.3859 4.81819L43.3586 4.49948C43.3348 4.81853 43.311 5.13759 43.2873 5.45665L43.3449 5.19164C43.1743 5.66019 43.0038 6.12877 42.8333 6.59738C42.7789 6.74704 42.7731 7.09939 42.8242 7.25023C42.9357 7.57929 43.0471 7.90833 43.1587 8.23736C43.1906 8.33166 43.3254 8.55008 43.3961 8.62019C43.5708 8.79347 43.7456 8.96673 43.9203 9.13998C44.0399 9.25855 44.3695 9.41102 44.5374 9.42336C44.994 9.45692 45.4506 9.49039 45.9072 9.52377C45.9532 9.52713 46.086 9.52233 46.1315 9.51509C46.4782 9.45994 46.825 9.40475 47.1716 9.34951L46.9483 9.35816C47.2762 9.38205 47.6042 9.40589 47.9321 9.42969L47.3706 9.19437C47.6748 9.45733 47.979 9.72023 48.2833 9.98309L47.9724 9.44767C48.0729 9.93609 48.1735 10.4245 48.2741 10.9129L48.2582 10.6516C48.2238 11.1303 48.1895 11.609 48.1553 12.0877L48.2173 11.8161C48.0505 12.2507 47.8837 12.6854 47.7171 13.1201L47.9072 12.8186C47.5571 13.1962 47.2071 13.5738 46.8572 13.9515L47.0196 13.8139C46.6531 14.0617 46.2865 14.3095 45.9201 14.5574L46.0864 14.4695C45.7535 14.6065 45.4207 14.7435 45.0879 14.8806L45.5007 14.8166C45.1791 14.7941 44.8575 14.7716 44.5359 14.7492L44.9644 14.8953C44.5252 14.6117 44.086 14.3283 43.6467 14.0449C43.5976 14.0132 43.4493 13.9452 43.3928 13.9302C43.0501 13.8386 42.7074 13.7471 42.3647 13.6557C42.3312 13.6467 42.2316 13.6288 42.197 13.6264C41.901 13.606 41.6051 13.5856 41.3092 13.5652C41.1811 13.5564 40.8927 13.6234 40.7835 13.691C35.187 17.1545 29.5996 20.6329 24.0213 24.1263L24.152 24.065C23.8631 24.1686 23.5743 24.2722 23.2854 24.3759L23.6892 24.3678C23.3545 24.2725 23.0198 24.1773 22.6851 24.0821L23.0256 24.3257C22.8557 24.0944 22.6858 23.8632 22.5158 23.6319L22.6337 24C22.629 23.6667 22.6243 23.3333 22.6195 23L22.6006 23.152C22.6699 22.8606 22.7392 22.5693 22.8085 22.2779L22.6135 22.591C22.7844 22.4413 22.9552 22.2916 23.126 22.1419L22.9629 22.2407C23.2946 22.101 23.6263 21.9612 23.958 21.8214L23.6961 21.8619C24.0179 21.8818 24.3397 21.9016 24.6616 21.9214C24.8225 21.9313 24.9834 21.9411 25.1443 21.951C25.2539 21.9577 25.4664 21.892 25.5489 21.8195C25.7196 21.6697 25.8903 21.5199 26.061 21.37C26.3723 21.0971 26.3452 20.6885 25.9864 20.482C25.6743 20.3026 25.3622 20.1233 25.0501 19.944L25.3077 20.4408C25.3174 20.2811 25.3271 20.1214 25.3368 19.9617C25.3465 19.802 25.3562 19.6423 25.3659 19.4826L25.1859 19.8358C25.3565 19.6859 25.5271 19.5359 25.6977 19.3859C25.8683 19.2359 26.0388 19.0859 26.2094 18.9359C26.3799 18.7859 26.5505 18.6359 26.721 18.4858L26.6043 18.5592C26.91 18.4173 27.2157 18.2753 27.5214 18.1333C27.6252 18.0851 27.7597 17.929 27.7847 17.8173C27.82 17.6591 27.8552 17.501 27.8905 17.3428C28.0124 16.83 27.3669 16.5419 27.07 16.9774C27.058 16.9956 27.0459 17.0138 27.0338 17.0321C26.9105 17.2186 26.7871 17.4051 26.6638 17.5916L26.8496 17.4371C26.6835 17.5143 26.5174 17.5916 26.3513 17.6688L26.5362 17.6315C26.1749 17.6307 25.8137 17.63 25.4524 17.6293L25.6569 17.6878C25.3444 17.5091 25.0319 17.3304 24.7194 17.1518L24.8164 17.2332C24.6648 17.064 24.5132 16.8948 24.3616 16.7257L24.4539 17.006C24.4632 16.8463 24.4726 16.6865 24.4819 16.5268ZM23.7341 16.4694L24.4819 16.5268L23.7341 16.4694Z" fill="black"/>
<path d="M21.47 26.9411L13.6854 39.8987L13.6507 41.0162L14.7335 42.1684L15.1528 43.0763L15.4994 44.0177L15.747 45.5556L15.3954 47.3701L14.3159 48.4194L13.3354 48.8722L11.8366 49.0137L11.173 48.7693L10.2998 48.0711L9.217 46.9189L8.79774 46.0111L8.55016 44.4732L7.74959 43.7414L7.01341 43.5306L5.72422 44.126L4.86703 44.7983L3.94108 45.2259L2.71838 44.9634L1.70817 43.7777L1.07928 42.4159L0.87691 40.9759L1.25876 39.4176L1.88153 38.1902L2.57977 37.317L3.48764 36.8977L5.10745 37.0183L6.17656 36.7575L7.01181 36.3717L17.0331 18.526L17.6587 17.6864L18.8471 17.3481L20 18L20.2783 18.7771L20 20L19.5 20.5L19 21L18.4529 21.5L17.9739 21.9467L17.9739 22.5L18.8471 22.6449L19.0568 23.0989L19.2664 23.5528L19.0221 24.2164L18.7778 24.8799L18.5335 25.5435L18 26.5L18.5335 26.3111L18.7778 26.1607L19.2664 25.8571L20 25.4032L20.5589 25.1589L21.2224 25.4032L21.432 25.8571L21.6417 26.3111L21.47 26.9411Z" fill="white"/>
<path d="M21.0916 26.0144C21.3186 25.9096 21.5455 25.8047 21.7725 25.6999C21.7053 25.5474 21.6382 25.3948 21.571 25.2422C21.5403 25.1727 21.4259 25.0704 21.3551 25.0429C21.1353 24.9576 20.9156 24.8722 20.6958 24.7869C20.6253 24.7595 20.4699 24.7666 20.4001 24.7957C20.2123 24.8738 20.0246 24.952 19.8369 25.0302C19.8262 25.0347 19.7958 25.051 19.7858 25.057C19.5386 25.2041 19.2914 25.3511 19.0443 25.4982C18.8791 25.597 18.7145 25.6954 18.5499 25.7937C18.469 25.8416 18.3867 25.8903 18.3045 25.9391L18.3877 25.8993C18.2088 25.9593 18.0299 26.0192 17.851 26.0792L18.3899 26.7175C18.481 26.5604 18.572 26.4034 18.6631 26.2464C18.7552 26.0876 18.8473 25.9287 18.9394 25.7699C18.9467 25.7572 18.9643 25.7177 18.9696 25.7041C19.0547 25.4842 19.1398 25.2644 19.2248 25.0445C19.3099 24.8247 19.3949 24.6048 19.48 24.3849C19.565 24.1651 19.65 23.9452 19.735 23.7253C19.7706 23.6331 19.7597 23.4338 19.7197 23.3435C19.6523 23.191 19.5848 23.0386 19.5173 22.8862C19.4499 22.7338 19.3824 22.5813 19.3149 22.4289C19.2588 22.3022 19.0679 22.1615 18.9315 22.1367C18.6412 22.0838 18.3509 22.0309 18.0606 21.9781L18.503 22.5C18.5059 22.3156 18.5087 22.1311 18.5116 21.9467L18.3406 22.3399C18.5026 22.1934 18.6645 22.047 18.8265 21.9005C19.0073 21.7404 19.1922 21.5765 19.377 21.4126C19.3808 21.4092 19.3916 21.3987 19.3952 21.3952C19.5644 21.231 19.7335 21.0669 19.9027 20.9027C20.0718 20.7385 20.241 20.5743 20.4101 20.4101C20.4633 20.3584 20.548 20.2007 20.5655 20.1287C20.6642 19.7224 20.7629 19.3161 20.8615 18.9098C20.8798 18.8345 20.8665 18.6488 20.8414 18.5755C20.7524 18.3151 20.6633 18.0547 20.5742 17.7944C20.54 17.6943 20.3915 17.5224 20.3002 17.4691C19.919 17.2463 19.5378 17.0237 19.1565 16.801C19.0478 16.7376 18.7966 16.7109 18.6751 16.7437C18.2774 16.8509 17.8797 16.9583 17.482 17.0657C17.3856 17.0917 17.202 17.2216 17.1412 17.3008C16.9289 17.5779 16.7167 17.855 16.5044 18.1321C16.494 18.1457 16.4668 18.1884 16.4582 18.2032C13.0391 24.1076 9.63566 30.0208 6.24782 35.9427L6.64445 35.5763C6.36501 35.7026 6.08558 35.829 5.80617 35.9554L5.96713 35.8992C5.61009 35.9834 5.25306 36.0677 4.89604 36.152L5.17367 36.129C4.63403 36.0848 4.09438 36.0407 3.55472 35.9967C3.45303 35.9884 3.20174 36.0353 3.10881 36.0774C2.8052 36.2151 2.50162 36.3527 2.19805 36.4904C2.1138 36.5286 1.92695 36.6765 1.86869 36.7484C1.63397 37.0379 1.39929 37.3274 1.16466 37.617C1.14051 37.6468 1.08056 37.7408 1.06299 37.7749C0.852741 38.1827 0.642566 38.5905 0.432463 38.9983C0.412544 39.037 0.36942 39.1549 0.358809 39.1971C0.228335 39.7157 0.0979686 40.2344 -0.0322898 40.7531C-0.0507391 40.8265 -0.0601925 41.0311 -0.0500811 41.1061C0.0146274 41.5865 0.0794246 42.0669 0.144313 42.5473C0.152007 42.6042 0.198293 42.7594 0.222114 42.8117C0.429313 43.2668 0.6366 43.7218 0.843974 44.1768C0.866261 44.2257 0.94895 44.3539 0.983594 44.395C1.31837 44.7919 1.65322 45.1888 1.98815 45.5855C2.084 45.6991 2.37188 45.8695 2.51703 45.9013C2.92419 45.9907 3.33137 46.08 3.73857 46.1692C3.8818 46.2006 4.21222 46.1627 4.3456 46.1018C4.65485 45.9606 4.96409 45.8193 5.27331 45.678C5.31529 45.6588 5.4286 45.5891 5.46503 45.5608C5.75165 45.3378 6.03825 45.1148 6.32481 44.8918L6.13226 45.0096C6.56272 44.8127 6.99315 44.6158 7.42354 44.4188L6.74416 44.4711C6.98931 44.5422 7.23448 44.6132 7.47965 44.6843L7.08792 44.4653C7.35401 44.7101 7.62013 44.9548 7.88629 45.1995L7.57869 44.6296C7.65974 45.1424 7.7409 45.6553 7.82216 46.1681C7.83089 46.2232 7.87738 46.3747 7.90064 46.4254C8.03965 46.7283 8.17869 47.0313 8.31778 47.3342C8.34562 47.3948 8.44966 47.5485 8.49524 47.5973C8.85533 47.9821 9.21551 48.3669 9.57575 48.7516C9.59521 48.7724 9.65707 48.8294 9.67927 48.8472C9.96991 49.0804 10.2606 49.3137 10.5513 49.5468C10.6036 49.5888 10.7662 49.6803 10.8291 49.7036C11.0501 49.7853 11.2712 49.8671 11.4923 49.9488C11.5833 49.9824 11.8336 50.0147 11.9302 50.0058C12.4299 49.9593 12.9295 49.9127 13.4292 49.8661C13.4999 49.8594 13.6893 49.8082 13.7539 49.7785C14.0809 49.6279 14.4078 49.4772 14.7348 49.3265C14.7994 49.2967 14.9612 49.1854 15.0122 49.1359C15.3723 48.7864 15.7323 48.4368 16.0923 48.0871C16.1936 47.9887 16.3501 47.699 16.377 47.5603C16.4479 47.195 16.5187 46.8297 16.5895 46.4644C16.6359 46.2248 16.6821 45.9853 16.7281 45.7457C16.7421 45.6729 16.7456 45.4698 16.7337 45.3967C16.6503 44.8842 16.566 44.3719 16.4807 43.8597C16.4743 43.8212 16.4459 43.7108 16.4322 43.6742C16.315 43.361 16.1974 43.048 16.0794 42.735C16.0739 42.7203 16.056 42.6765 16.0493 42.6622C15.9072 42.3607 15.7648 42.0593 15.6221 41.7581C15.5938 41.6985 15.4923 41.5457 15.4467 41.4981C15.082 41.1177 14.7165 40.7378 14.3504 40.3587L14.6104 41.046C14.6169 40.6733 14.6229 40.3007 14.6285 39.928L14.4942 40.3846C16.4347 37.0331 18.3308 33.6547 20.1823 30.2496C20.74 29.224 21.2936 28.1959 21.8432 27.1653C21.8549 27.1435 21.8848 27.0798 21.8901 27.0556C21.9366 26.8427 21.9829 26.6297 22.0291 26.4167C22.0435 26.3503 22.0379 26.2027 22.0063 26.1427C21.9284 25.9951 21.8505 25.8475 21.7725 25.6999C21.5455 25.8047 21.3186 25.9096 21.0916 26.0144C21.1533 26.1694 21.2152 26.3245 21.2771 26.4794L21.2542 26.2055C21.186 26.4125 21.1178 26.6195 21.0499 26.8266L21.0967 26.7169C20.445 27.686 19.7973 28.6576 19.1536 29.6317C17.0167 32.8653 14.9244 36.1257 12.8766 39.4128C12.8198 39.5039 12.7474 39.7623 12.7423 39.8695C12.7247 40.2418 12.7076 40.6141 12.691 40.9864C12.6826 41.1763 12.8228 41.5335 12.9511 41.6738C13.3068 42.0627 13.6632 42.451 14.0204 42.8387L13.845 42.5787C13.9817 42.8827 14.1188 43.1866 14.2563 43.4903L14.2261 43.4175C14.3393 43.7321 14.4528 44.0467 14.5667 44.3611L14.5181 44.1756C14.5979 44.6887 14.6787 45.2016 14.7603 45.7144L14.7659 45.3655C14.7191 45.6049 14.6725 45.8444 14.626 46.0839C14.5553 46.4493 14.4845 46.8146 14.4138 47.18L14.6986 46.6532C14.3388 47.003 13.9791 47.353 13.6195 47.703L13.897 47.5124C13.5703 47.6635 13.2436 47.8147 12.9169 47.966L13.2416 47.8784C12.7421 47.926 12.2425 47.9737 11.743 48.0215L12.1809 48.0785C11.9596 47.9974 11.7383 47.9162 11.517 47.8351L11.7947 47.9918C11.5033 47.7595 11.2119 47.5273 10.9204 47.2951L11.0239 47.3906C10.6623 47.0072 10.3005 46.6239 9.93876 46.2406L10.1162 46.5037C9.9758 46.2014 9.83534 45.8991 9.69484 45.5968L9.77332 45.854C9.68953 45.3416 9.60563 44.8292 9.52164 44.3168C9.49615 44.1613 9.33065 43.8529 9.21403 43.7469C8.94648 43.5037 8.67888 43.2606 8.41126 43.0175C8.33786 42.9509 8.11493 42.8256 8.01952 42.7986C7.77391 42.7291 7.52829 42.6596 7.28266 42.5902C7.1197 42.5441 6.75677 42.571 6.60327 42.6425C6.17421 42.8424 5.74518 43.0424 5.31619 43.2424C5.27418 43.262 5.16001 43.3314 5.12364 43.3602C4.83874 43.5853 4.55387 43.8105 4.26903 44.0357L4.46075 43.9185C4.15267 44.0623 3.8446 44.2061 3.53656 44.3499L4.14359 44.2825C3.73565 44.1968 3.3277 44.1111 2.91973 44.0254L3.44861 44.3412C3.11007 43.9475 2.77145 43.5539 2.43275 43.1603L2.57237 43.3786C2.36048 42.9257 2.14851 42.4728 1.93645 42.02L2.01425 42.2845C1.94422 41.8048 1.87411 41.3252 1.8039 40.8456L1.78611 41.1987C1.91042 40.6785 2.03462 40.1583 2.15872 39.6381L2.08506 39.8368C2.29014 39.4264 2.49515 39.016 2.70008 38.6055L2.59841 38.7634C2.82927 38.4709 3.06008 38.1783 3.29085 37.8856L2.96149 38.1436C3.26317 38.0018 3.56482 37.8599 3.86646 37.7181L3.42055 37.7988C3.96077 37.8352 4.501 37.8715 5.04124 37.9077C5.09954 37.9116 5.26221 37.899 5.31887 37.8847C5.67459 37.7951 6.0303 37.7054 6.38599 37.6157C6.41967 37.6072 6.51553 37.5743 6.54695 37.5595C6.82437 37.4288 7.10178 37.298 7.37917 37.1672C7.49541 37.1124 7.71377 36.9133 7.7758 36.8008C11.0688 30.8256 14.3462 24.8416 17.6079 18.8488L17.5618 18.9199C17.7666 18.6373 17.9714 18.3546 18.1762 18.0719L17.8354 18.307C18.23 18.1889 18.6246 18.0707 19.0192 17.9525L18.5378 17.8951C18.9251 18.1071 19.3124 18.319 19.6998 18.5309L19.4258 18.2056C19.5222 18.4633 19.6187 18.7211 19.7152 18.9788L19.6951 18.6444C19.6081 19.0534 19.5213 19.4623 19.4345 19.8713L19.5899 19.5899C19.4257 19.759 19.2615 19.9282 19.0973 20.0973C18.9331 20.2665 18.769 20.4356 18.6048 20.6048L18.6229 20.5874C18.4431 20.7569 18.2633 20.9263 18.0834 21.0957C17.922 21.2508 17.7646 21.4022 17.6072 21.5535C17.5258 21.6319 17.4346 21.8337 17.4363 21.9467C17.4391 22.1311 17.442 22.3156 17.4449 22.5C17.4488 22.7513 17.6388 22.9846 17.8873 23.0219C18.1791 23.0657 18.4709 23.1095 18.7628 23.1532L18.3794 22.861C18.4517 23.0112 18.5239 23.1614 18.5962 23.3116C18.6685 23.4618 18.7408 23.612 18.8131 23.7622L18.7978 23.3803C18.7199 23.6028 18.6421 23.8253 18.5642 24.0478C18.4864 24.2703 18.4086 24.4928 18.3307 24.7153C18.2529 24.9379 18.1752 25.1604 18.0974 25.3829L18.1276 25.3171C18.0409 25.4789 17.9541 25.6408 17.8674 25.8026C17.7816 25.9626 17.6959 26.1226 17.6101 26.2825C17.3902 26.686 17.7173 27.0784 18.149 26.9208C18.3258 26.8548 18.5026 26.7889 18.6793 26.7229C18.697 26.7163 18.7466 26.6932 18.7625 26.6831C18.8431 26.6315 18.9237 26.58 19.0043 26.5285C19.1669 26.4236 19.328 26.3197 19.4891 26.2157C19.7304 26.0605 19.9723 25.905 20.2142 25.7494L20.1631 25.7763C20.3479 25.6916 20.5328 25.6069 20.7176 25.5222L20.4219 25.5309C20.6445 25.6085 20.8671 25.686 21.0898 25.7635L20.8739 25.5642C20.9464 25.7142 21.019 25.8643 21.0916 26.0144ZM21.7725 25.6999L21.0916 26.0144L21.7725 25.6999Z" fill="black"/>
</g>
<defs>
<clipPath id="clip0_2_3">
<rect width="50" height="50" fill="white"/>
</clipPath>
</defs>
</svg>
